<mxfile host="app.diagrams.net" modified="2024-02-07T15:32:41.049Z" agent="Mozilla/5.0 (Windows NT 10.0; Win64; x64) AppleWebKit/537.36 (KHTML, like Gecko) Chrome/121.0.0.0 Safari/537.36" etag="9hyeskJWXhZw3UjvVlM7" version="23.1.1" type="device">
  <diagram name="Page-1" id="cgYSowHfHMtuaHX5mpb0">
    <mxGraphModel dx="934" dy="494" grid="1" gridSize="10" guides="1" tooltips="1" connect="1" arrows="1" fold="1" page="1" pageScale="1" pageWidth="827" pageHeight="1169" math="0" shadow="0">
      <root>
        <mxCell id="0" />
        <mxCell id="1" parent="0" />
        <mxCell id="IWlJbuKZ5SjiQSh-muDo-2" style="edgeStyle=orthogonalEdgeStyle;rounded=0;orthogonalLoop=1;jettySize=auto;html=1;" edge="1" parent="1" source="C-astbQrihWwFAMmWTHL-1" target="IWlJbuKZ5SjiQSh-muDo-1">
          <mxGeometry relative="1" as="geometry" />
        </mxCell>
        <mxCell id="C-astbQrihWwFAMmWTHL-1" value="User" style="rounded=0;whiteSpace=wrap;html=1;" parent="1" vertex="1">
          <mxGeometry x="260" y="90" width="120" height="60" as="geometry" />
        </mxCell>
        <mxCell id="IWlJbuKZ5SjiQSh-muDo-17" style="edgeStyle=orthogonalEdgeStyle;rounded=0;orthogonalLoop=1;jettySize=auto;html=1;" edge="1" parent="1" source="C-astbQrihWwFAMmWTHL-3" target="C-astbQrihWwFAMmWTHL-6">
          <mxGeometry relative="1" as="geometry" />
        </mxCell>
        <mxCell id="C-astbQrihWwFAMmWTHL-3" value="Calendar microservice" style="rounded=0;whiteSpace=wrap;html=1;" parent="1" vertex="1">
          <mxGeometry x="660" y="390" width="120" height="60" as="geometry" />
        </mxCell>
        <mxCell id="IWlJbuKZ5SjiQSh-muDo-8" style="edgeStyle=orthogonalEdgeStyle;rounded=0;orthogonalLoop=1;jettySize=auto;html=1;exitX=0.5;exitY=1;exitDx=0;exitDy=0;" edge="1" parent="1" source="C-astbQrihWwFAMmWTHL-5" target="C-astbQrihWwFAMmWTHL-3">
          <mxGeometry relative="1" as="geometry" />
        </mxCell>
        <mxCell id="C-astbQrihWwFAMmWTHL-5" value="discovery-server" style="rounded=0;whiteSpace=wrap;html=1;" parent="1" vertex="1">
          <mxGeometry x="660" y="230" width="120" height="60" as="geometry" />
        </mxCell>
        <mxCell id="C-astbQrihWwFAMmWTHL-6" value="MySQL" style="rounded=0;whiteSpace=wrap;html=1;" parent="1" vertex="1">
          <mxGeometry x="660" y="524" width="120" height="60" as="geometry" />
        </mxCell>
        <mxCell id="IWlJbuKZ5SjiQSh-muDo-18" style="edgeStyle=orthogonalEdgeStyle;rounded=0;orthogonalLoop=1;jettySize=auto;html=1;" edge="1" parent="1" source="C-astbQrihWwFAMmWTHL-12">
          <mxGeometry relative="1" as="geometry">
            <mxPoint x="558.9999999999998" y="59.94" as="sourcePoint" />
            <mxPoint x="660" y="550" as="targetPoint" />
            <Array as="points">
              <mxPoint x="610" y="75" />
              <mxPoint x="149" y="75" />
              <mxPoint x="149" y="550" />
              <mxPoint x="660" y="550" />
              <mxPoint x="660" y="524" />
            </Array>
          </mxGeometry>
        </mxCell>
        <mxCell id="C-astbQrihWwFAMmWTHL-12" value="user microservice" style="rounded=0;whiteSpace=wrap;html=1;" parent="1" vertex="1">
          <mxGeometry x="540" y="90" width="120" height="60" as="geometry" />
        </mxCell>
        <mxCell id="IWlJbuKZ5SjiQSh-muDo-1" value="Web application" style="rounded=0;whiteSpace=wrap;html=1;" vertex="1" parent="1">
          <mxGeometry x="260" y="240" width="120" height="60" as="geometry" />
        </mxCell>
        <mxCell id="IWlJbuKZ5SjiQSh-muDo-9" style="edgeStyle=orthogonalEdgeStyle;rounded=0;orthogonalLoop=1;jettySize=auto;html=1;exitX=0;exitY=1;exitDx=0;exitDy=0;entryX=0;entryY=0.75;entryDx=0;entryDy=0;" edge="1" parent="1" source="IWlJbuKZ5SjiQSh-muDo-1" target="C-astbQrihWwFAMmWTHL-3">
          <mxGeometry relative="1" as="geometry">
            <mxPoint x="414" y="440" as="sourcePoint" />
            <Array as="points">
              <mxPoint x="280" y="300" />
              <mxPoint x="280" y="435" />
            </Array>
          </mxGeometry>
        </mxCell>
        <mxCell id="IWlJbuKZ5SjiQSh-muDo-10" style="edgeStyle=orthogonalEdgeStyle;rounded=0;orthogonalLoop=1;jettySize=auto;html=1;entryX=0.109;entryY=1.051;entryDx=0;entryDy=0;entryPerimeter=0;exitX=0.5;exitY=1;exitDx=0;exitDy=0;" edge="1" parent="1" source="IWlJbuKZ5SjiQSh-muDo-1" target="C-astbQrihWwFAMmWTHL-12">
          <mxGeometry relative="1" as="geometry">
            <mxPoint x="609.9999999999998" y="280" as="targetPoint" />
            <mxPoint x="330" y="330" as="sourcePoint" />
            <Array as="points">
              <mxPoint x="320" y="330" />
              <mxPoint x="400" y="330" />
              <mxPoint x="400" y="280" />
              <mxPoint x="553" y="280" />
            </Array>
          </mxGeometry>
        </mxCell>
        <mxCell id="IWlJbuKZ5SjiQSh-muDo-7" style="edgeStyle=orthogonalEdgeStyle;rounded=0;orthogonalLoop=1;jettySize=auto;html=1;exitX=0.5;exitY=0;exitDx=0;exitDy=0;entryX=0.632;entryY=0.999;entryDx=0;entryDy=0;entryPerimeter=0;" edge="1" parent="1" source="C-astbQrihWwFAMmWTHL-5" target="C-astbQrihWwFAMmWTHL-12">
          <mxGeometry relative="1" as="geometry" />
        </mxCell>
        <mxCell id="IWlJbuKZ5SjiQSh-muDo-11" value="Plans events using" style="text;html=1;strokeColor=none;fillColor=none;align=center;verticalAlign=middle;whiteSpace=wrap;rounded=0;" vertex="1" parent="1">
          <mxGeometry x="320" y="170" width="80" height="40" as="geometry" />
        </mxCell>
        <mxCell id="IWlJbuKZ5SjiQSh-muDo-13" value="Reads from and writes to" style="text;html=1;strokeColor=none;fillColor=none;align=center;verticalAlign=middle;whiteSpace=wrap;rounded=0;" vertex="1" parent="1">
          <mxGeometry x="620" y="460" width="90" height="40" as="geometry" />
        </mxCell>
        <mxCell id="IWlJbuKZ5SjiQSh-muDo-14" value="register/login using" style="text;html=1;strokeColor=none;fillColor=none;align=center;verticalAlign=middle;whiteSpace=wrap;rounded=0;" vertex="1" parent="1">
          <mxGeometry x="430" y="240" width="90" height="40" as="geometry" />
        </mxCell>
        <mxCell id="IWlJbuKZ5SjiQSh-muDo-15" value="add/get/delete events using" style="text;html=1;strokeColor=none;fillColor=none;align=center;verticalAlign=middle;whiteSpace=wrap;rounded=0;" vertex="1" parent="1">
          <mxGeometry x="500" y="380" width="90" height="40" as="geometry" />
        </mxCell>
        <mxCell id="IWlJbuKZ5SjiQSh-muDo-19" value="Reads from and writes to" style="text;html=1;strokeColor=none;fillColor=none;align=center;verticalAlign=middle;whiteSpace=wrap;rounded=0;" vertex="1" parent="1">
          <mxGeometry x="360" y="500" width="90" height="40" as="geometry" />
        </mxCell>
        <mxCell id="IWlJbuKZ5SjiQSh-muDo-20" value="registers client" style="text;html=1;strokeColor=none;fillColor=none;align=center;verticalAlign=middle;whiteSpace=wrap;rounded=0;" vertex="1" parent="1">
          <mxGeometry x="690" y="140" width="90" height="40" as="geometry" />
        </mxCell>
        <mxCell id="IWlJbuKZ5SjiQSh-muDo-21" value="registers client" style="text;html=1;strokeColor=none;fillColor=none;align=center;verticalAlign=middle;whiteSpace=wrap;rounded=0;" vertex="1" parent="1">
          <mxGeometry x="620" y="310" width="90" height="40" as="geometry" />
        </mxCell>
      </root>
    </mxGraphModel>
  </diagram>
</mxfile>
